<svg width="32" height="32" viewBox="0 0 32 32" fill="none" xmlns="http://www.w3.org/2000/svg">
<path d="M13.2486 20.6654C13.1296 20.204 12.8891 19.783 12.5521 19.446C12.2152 19.1091 11.7941 18.8686 11.3327 18.7496L3.15318 16.6404C3.01363 16.6007 2.89081 16.5167 2.80335 16.401C2.7159 16.2852 2.66858 16.1441 2.66858 15.9991C2.66858 15.854 2.7159 15.7129 2.80335 15.5972C2.89081 15.4814 3.01363 15.3974 3.15318 15.3578L11.3327 13.2472C11.7939 13.1283 12.2149 12.888 12.5518 12.5513C12.8888 12.2146 13.1293 11.7938 13.2486 11.3327L15.3578 3.15315C15.397 3.01305 15.481 2.88962 15.5969 2.8017C15.7128 2.71377 15.8543 2.66618 15.9998 2.66618C16.1452 2.66618 16.2867 2.71377 16.4026 2.8017C16.5185 2.88962 16.6025 3.01305 16.6417 3.15315L18.7496 11.3327C18.8686 11.7941 19.1091 12.2151 19.4461 12.5521C19.783 12.889 20.2041 13.1295 20.6655 13.2486L28.845 15.3564C28.9857 15.3952 29.1097 15.4791 29.1981 15.5952C29.2865 15.7113 29.3344 15.8531 29.3344 15.9991C29.3344 16.145 29.2865 16.2868 29.1981 16.4029C29.1097 16.519 28.9857 16.6029 28.845 16.6417L20.6655 18.7496C20.2041 18.8686 19.783 19.1091 19.4461 19.446C19.1091 19.783 18.8686 20.204 18.7496 20.6654L16.6404 28.845C16.6012 28.9851 16.5172 29.1085 16.4013 29.1964C16.2854 29.2843 16.1439 29.3319 15.9984 29.3319C15.8529 29.3319 15.7114 29.2843 15.5955 29.1964C15.4796 29.1085 15.3957 28.9851 15.3565 28.845L13.2486 20.6654Z" stroke="#C9A55C" stroke-width="2.66651" stroke-linecap="round" stroke-linejoin="round"/>
<path d="M26.665 3.99976V9.33278" stroke="#C9A55C" stroke-width="2.66651" stroke-linecap="round" stroke-linejoin="round"/>
<path d="M29.3316 6.66627H23.9985" stroke="#C9A55C" stroke-width="2.66651" stroke-linecap="round" stroke-linejoin="round"/>
<path d="M5.33301 22.6653V25.3318" stroke="#C9A55C" stroke-width="2.66651" stroke-linecap="round" stroke-linejoin="round"/>
<path d="M6.66626 23.9986H3.99976" stroke="#C9A55C" stroke-width="2.66651" stroke-linecap="round" stroke-linejoin="round"/>
</svg>
