<svg width="18" height="18" viewBox="0 0 18 18" fill="none" xmlns="http://www.w3.org/2000/svg">
<path d="M10.8974 16.2576C10.9259 16.3286 10.9754 16.3891 11.0393 16.4312C11.1032 16.4732 11.1784 16.4947 11.2549 16.4927C11.3313 16.4908 11.4054 16.4655 11.467 16.4202C11.5287 16.375 11.5751 16.3119 11.5999 16.2396L16.4728 1.9956C16.4968 1.92917 16.5014 1.85729 16.486 1.78835C16.4706 1.71942 16.436 1.65629 16.386 1.60635C16.3361 1.55641 16.2729 1.52172 16.204 1.50635C16.1351 1.49098 16.0632 1.49556 15.9968 1.51955L1.75276 6.3925C1.68041 6.41731 1.61739 6.46366 1.57214 6.52532C1.52689 6.58698 1.50159 6.66101 1.49963 6.73747C1.49768 6.81393 1.51915 6.88916 1.56118 6.95306C1.60321 7.01696 1.66378 7.06647 1.73477 7.09495L7.67976 9.47895C7.8677 9.55419 8.03845 9.66671 8.18173 9.80973C8.325 9.95275 8.43783 10.1233 8.51341 10.3111L10.8974 16.2576Z" stroke="white" stroke-width="1.49937" stroke-linecap="round" stroke-linejoin="round"/>
<path d="M16.3836 1.60962L8.18201 9.81042" stroke="white" stroke-width="1.49937" stroke-linecap="round" stroke-linejoin="round"/>
</svg>
